<svg xmlns="http://www.w3.org/2000/svg" width="25.369" height="19" viewBox="0 0 25.369 19">
  <g id="email-icon" transform="translate(0 -64.266)">
    <path id="Path_3" data-name="Path 3" d="M14.8,178.452a3.816,3.816,0,0,1-4.24,0l-10.4-6.93c-.058-.038-.114-.079-.169-.12v11.356a2.335,2.335,0,0,0,2.335,2.335h20.7a2.335,2.335,0,0,0,2.335-2.335V171.4c-.055.041-.111.082-.169.12Z" transform="translate(0 -101.828)"/>
    <path id="Path_4" data-name="Path 4" d="M.993,68.457l10.4,6.93a2.329,2.329,0,0,0,2.591,0l10.4-6.93a2.226,2.226,0,0,0,.993-1.857,2.337,2.337,0,0,0-2.335-2.335H2.335A2.338,2.338,0,0,0,0,66.6a2.225,2.225,0,0,0,.993,1.856Z"/>
  </g>
</svg>
