<svg xmlns="http://www.w3.org/2000/svg" width="25.369" height="27.22" viewBox="0 0 25.369 27.22">
  <g id="phone-icon" transform="translate(-0.872 0)">
    <path id="Path_2" data-name="Path 2" d="M23.4,18.945c-1.644-1.406-3.313-2.258-4.937-.854l-.97.849c-.71.616-2.029,3.495-7.13-2.373S8.3,9.794,9.008,9.183l.975-.85c1.616-1.407,1.006-3.179-.159-5l-.7-1.1C7.95.406,6.675-.789,5.055.616l-.875.765a8.217,8.217,0,0,0-3.2,5.438c-.584,3.864,1.259,8.29,5.481,13.145s8.346,7.3,12.257,7.255a8.239,8.239,0,0,0,5.827-2.413l.878-.766c1.616-1.4.612-2.834-1.034-4.244Z" transform="translate(0 0)" fill="#030104"/>
  </g>
</svg>
