<svg width="140" height="140" viewBox="0 0 140 140" fill="none" xmlns="http://www.w3.org/2000/svg">
<path fill-rule="evenodd" clip-rule="evenodd" d="M106.18 53.1161C103.136 53.1161 100.668 50.6502 100.668 47.6102C100.668 44.5649 103.136 42.1029 106.18 42.1029C109.221 42.1029 111.684 44.5649 111.684 47.6102C111.684 50.6502 109.221 53.1161 106.18 53.1161ZM126.287 51.2491L120.285 47.7838C120.33 44.612 119.383 41.537 117.423 38.984C116.23 37.4269 114.749 36.1759 113.086 35.2454L113.083 28.3801C113.083 27.2562 112.166 26.3394 111.039 26.3394H101.306C100.181 26.3394 99.2627 27.2562 99.2627 28.3801V35.2905C95.4919 37.4235 92.7233 41.2184 92.1232 45.7625C92.0398 46.3942 92.0476 47.0163 92.0558 47.6407L92.0574 47.7838L86.0568 51.2491C85.0829 51.8102 84.7466 53.0699 85.308 54.0457L90.1761 62.476C90.7389 63.4504 91.9919 63.7878 92.9663 63.2258L98.9298 59.7815C100.564 60.7531 102.385 61.4097 104.325 61.6615C104.952 61.7446 105.574 61.7861 106.188 61.7861C108.81 61.7861 111.287 61.0527 113.416 59.7773L119.38 63.2258C120.356 63.7833 121.611 63.4484 122.172 62.4726L127.038 54.0457C127.599 53.0699 127.263 51.8102 126.287 51.2491ZM59.9521 96.3848C61.6002 96.3848 63.162 97.2576 64.0126 98.7315L66.4652 102.983L70.3163 100.758L67.8551 96.4954C66.8174 94.6998 67.084 92.4354 68.51 90.929C69.049 90.3587 69.4945 89.8435 69.8716 89.3518C71.3262 87.4565 72.416 85.2993 73.109 82.9384C73.695 80.9425 75.5268 79.5717 77.6069 79.5717H82.545V75.1292H77.5943C75.5142 75.1292 73.683 73.7591 73.0964 71.7633C72.2236 68.7956 70.6363 66.0423 68.5038 63.8007C67.0728 62.2951 66.802 60.0265 67.8408 58.2264L70.3115 53.9461L66.4598 51.724L63.9678 56.0385C62.9296 57.8358 60.8346 58.7346 58.8147 58.2533C57.0796 57.8367 55.6294 57.6432 54.2518 57.6432C52.6948 57.6432 51.1321 57.8271 49.6072 58.1903C47.5901 58.6705 45.4971 57.7703 44.4608 55.9755L42.0058 51.7265L38.1552 53.9494L40.6186 58.2163C41.6574 60.0153 41.3889 62.2831 39.9576 63.7892C39.4057 64.3707 38.9745 64.8683 38.5993 65.3558C37.1366 67.2631 36.0423 69.4225 35.3485 71.77C34.7596 73.7617 32.9301 75.1292 30.8525 75.1292H25.9252V79.5717H30.8632C32.9441 79.5717 34.7759 80.9434 35.3619 82.9392C36.2464 85.9551 37.7918 88.6347 39.9536 90.9024C41.3889 92.4085 41.66 94.6796 40.62 96.482L38.1513 100.757L42.003 102.978L44.4944 98.6626C45.5318 96.865 47.6276 95.9629 49.6453 96.4473C51.3995 96.8664 52.8541 97.0619 54.223 97.0619C55.7776 97.0619 57.3394 96.8779 58.8632 96.5142C59.226 96.4271 59.5912 96.3848 59.9521 96.3848ZM71.6384 103.049L71.6393 103.05L71.641 103.053L71.6384 103.049ZM44.276 104.288L44.2942 104.299L44.2858 104.294L44.276 104.288ZM42.9575 113.325C41.786 113.325 40.6312 113.017 39.5933 112.412L31.174 107.557C29.6169 106.66 28.5025 105.207 28.0368 103.467C27.5708 101.727 27.8098 99.9117 28.71 98.3566L30.8626 94.6281C29.5612 92.8675 28.4602 90.9579 27.5861 88.948H23.2804C19.5687 88.948 16.5488 85.9288 16.5488 82.2179V72.4832C16.5488 68.7721 19.5687 65.7528 23.2804 65.7528H27.5734C28.4482 63.7318 29.5452 61.8255 30.8539 60.0554L28.7139 56.3485C26.8635 53.1318 27.9679 49.0108 31.1712 47.1549L39.6092 42.2838C42.8281 40.4327 46.9489 41.5404 48.8028 44.7486L50.9439 48.4541C53.0918 48.2097 55.2103 48.1865 57.504 48.4816L59.662 44.7453C61.5226 41.5339 65.6448 40.4321 68.8555 42.2818L77.2888 47.1463C80.5063 49.0203 81.6039 53.143 79.7523 56.3465L77.5977 60.0803C78.8963 61.8404 79.9959 63.7472 80.8692 65.7528H85.1899C88.9016 65.7528 91.9214 68.7721 91.9214 72.4832V82.2179C91.9214 85.9288 88.9016 88.948 85.1899 88.948H80.8927C80.0194 90.9766 78.9243 92.8854 77.6178 94.6522L79.7582 98.3605C80.657 99.9123 80.8961 101.728 80.4299 103.468C79.9631 105.209 78.8473 106.661 77.2874 107.559L68.8656 112.425C65.6481 114.274 61.5265 113.171 59.6701 109.97L57.5256 106.251C55.3791 106.496 53.2668 106.519 50.9582 106.22L48.8016 109.955C47.9034 111.514 46.4468 112.63 44.7022 113.096C44.1248 113.249 43.5388 113.325 42.9575 113.325ZM47.2826 77.349C47.2826 73.5113 50.3996 70.3977 54.2404 70.3977C58.0822 70.3977 61.1944 73.5113 61.1944 77.349C61.1944 81.1917 58.0822 84.3109 54.2404 84.3109C50.3996 84.3109 47.2826 81.1917 47.2826 77.349Z" fill="#E60012"/>
</svg>
