<svg width="140" height="140" viewBox="0 0 140 140" fill="none" xmlns="http://www.w3.org/2000/svg">
<path fill-rule="evenodd" clip-rule="evenodd" d="M41.3585 50.6424L41.4098 50.3956L42.0155 50.4144C42.0662 50.4164 42.1169 50.417 42.1676 50.417C45.6048 50.417 63.1623 49.7473 71.263 36.5837L71.445 36.2954L71.5275 36.4243C79.6678 49.7421 97.1954 50.417 100.631 50.417C100.683 50.417 100.733 50.4164 100.784 50.4144L101.389 50.3956L101.44 50.6424C101.454 50.7072 101.464 50.7545 101.481 50.8186C101.503 50.9145 103.542 61.1705 100.851 74.1598C98.4647 85.7877 91.4376 101.477 71.5574 110.189L71.5223 110.172C71.4501 110.136 71.3774 110.102 71.3033 110.069C51.4205 101.366 44.3642 85.653 41.9401 73.9726C39.2386 61.3615 41.2974 50.9106 41.3143 50.8367C41.3299 50.7726 41.3449 50.7072 41.3585 50.6424ZM69.2204 119.887C69.9054 120.228 70.6521 120.4 71.3995 120.4C72.0526 120.4 72.7057 120.27 73.3198 120.007L75.4163 119.112C99.1711 108.713 107.553 89.9862 110.4 76.116C113.409 61.5928 111.315 50.2797 110.984 48.6747H110.987L110.106 44.4289C109.626 42.1165 107.538 40.4914 105.18 40.5568L100.56 40.7006C98.7077 40.6922 85.2833 40.3126 79.8289 31.3307C79.8055 31.2918 79.7808 31.2536 79.7561 31.2154L75.4969 24.6268C74.5949 23.2316 73.0573 22.418 71.3754 22.3999C69.7104 22.4083 68.1644 23.2633 67.2767 24.6669L62.9849 31.4524C57.5299 40.3171 44.0932 40.6922 42.2384 40.7006L37.6191 40.5568C35.2348 40.4836 33.174 42.1165 32.6938 44.4289L31.8288 48.5976C31.1978 51.2681 29.5997 62.8979 32.4 75.9715C35.279 89.8392 43.6662 108.536 67.2702 118.915L69.2204 119.887ZM56.0008 74.8128L68.9691 86.7999L89.6008 67.7294L82.9696 61.5999L68.9691 74.5404L62.632 68.6833L56.0008 74.8128Z" fill="#E60012"/>
</svg>
